<svg width="36" height="36" viewBox="0 0 36 36" fill="none" xmlns="http://www.w3.org/2000/svg">
<g clip-path="url(#clip0_2532_12955)">
<path d="M18 36C27.9411 36 36 27.9411 36 18C36 8.05888 27.9411 0 18 0C8.05888 0 0 8.05888 0 18C0 27.9411 8.05888 36 18 36Z" fill="#3B5998"/>
<path d="M22.5251 18.706H19.3133V30.4728H14.447V18.706H12.1326V14.5706H14.447V11.8946C14.447 9.98095 15.356 6.98438 19.3566 6.98438L22.9612 6.99946V11.0135H20.3458C19.9168 11.0135 19.3136 11.2278 19.3136 12.1407V14.5745H22.9503L22.5251 18.706Z" fill="white"/>
</g>
<defs>
<clipPath id="clip0_2532_12955">
<rect width="36" height="36" fill="white"/>
</clipPath>
</defs>
</svg>
