<svg width="36" height="36" viewBox="0 0 36 36" fill="none" xmlns="http://www.w3.org/2000/svg">
<g clip-path="url(#clip0_2532_12964)">
<path d="M18 36C27.9411 36 36 27.9411 36 18C36 8.05888 27.9411 0 18 0C8.05888 0 0 8.05888 0 18C0 27.9411 8.05888 36 18 36Z" fill="#007AB9"/>
<path d="M28.7549 19.4486V26.8696H24.4524V19.946C24.4524 18.2075 23.8312 17.0203 22.2734 17.0203C21.0846 17.0203 20.3783 17.8196 20.0665 18.5935C19.9532 18.8701 19.924 19.2542 19.924 19.6421V26.8693H15.6212C15.6212 26.8693 15.6789 15.1429 15.6212 13.9291H19.9243V15.7628C19.9157 15.7773 19.9035 15.7914 19.8958 15.8052H19.9243V15.7628C20.4961 14.883 21.5158 13.6252 23.802 13.6252C26.6327 13.6252 28.7549 15.4747 28.7549 19.4486ZM11.12 7.69141C9.64822 7.69141 8.6853 8.65754 8.6853 9.92689C8.6853 11.1693 9.62031 12.1633 11.0636 12.1633H11.0915C12.5922 12.1633 13.5253 11.1693 13.5253 9.92689C13.4967 8.65754 12.5922 7.69141 11.12 7.69141ZM8.94103 26.8696H13.2423V13.9291H8.94103V26.8696Z" fill="#F1F2F2"/>
</g>
<defs>
<clipPath id="clip0_2532_12964">
<rect width="36" height="36" fill="white"/>
</clipPath>
</defs>
</svg>
