<svg width="142" height="43" viewBox="0 0 142 43" fill="none" xmlns="http://www.w3.org/2000/svg">
<g clip-path="url(#clip0_2532_12851)">
<path fill-rule="evenodd" clip-rule="evenodd" d="M87.8128 33.3196C79.5873 39.3754 67.6649 42.6063 57.4 42.6063C43.0069 42.6063 30.0494 37.2891 20.2466 28.4455C19.4764 27.7501 20.1665 26.8023 21.0907 27.3439C31.6699 33.492 44.7506 37.1906 58.2626 37.1906C67.3753 37.1906 77.4 35.3074 86.6175 31.3995C88.01 30.8087 89.1745 32.3103 87.8128 33.3196Z" fill="#FF9900"/>
<path fill-rule="evenodd" clip-rule="evenodd" d="M91.2322 29.4129C90.1847 28.0713 84.2821 28.779 81.6327 29.0929C80.8256 29.1913 80.7023 28.4898 81.4294 27.9851C86.1305 24.6803 93.8446 25.6342 94.7442 26.742C95.6437 27.8559 94.51 35.5794 90.0923 39.2657C89.4146 39.8319 88.7676 39.5304 89.0695 38.7796C90.0615 36.3056 92.2858 30.7607 91.2322 29.4129Z" fill="#FF9900"/>
<path fill-rule="evenodd" clip-rule="evenodd" d="M81.8175 4.65375V1.44126C81.8175 0.955078 82.1872 0.628906 82.6308 0.628906H97.0301C97.4922 0.628906 97.8619 0.961233 97.8619 1.44126V4.19218C97.8557 4.65375 97.4675 5.25686 96.7775 6.21076L89.316 16.8514C92.0886 16.7837 95.0153 17.196 97.5292 18.6115C98.096 18.9315 98.25 19.3992 98.2932 19.8608V23.2886C98.2932 23.7564 97.7756 24.3041 97.2334 24.021C92.8033 21.7009 86.9192 21.4485 82.0208 24.0456C81.5218 24.3164 80.998 23.7748 80.998 23.3071V20.0515C80.998 19.5284 81.0042 18.6361 81.5279 17.8422L90.1724 5.45995H82.6493C82.1872 5.45995 81.8175 5.13378 81.8175 4.65375Z" fill="black"/>
<path fill-rule="evenodd" clip-rule="evenodd" d="M29.2912 24.6962H24.9104C24.4915 24.6654 24.1587 24.3516 24.1279 23.9515V1.49492C24.1279 1.04566 24.5038 0.688718 24.972 0.688718H29.0571C29.4822 0.707168 29.8211 1.03335 29.8519 1.43953V4.37508H29.932C30.9979 1.53799 33.0004 0.214844 35.6991 0.214844C38.4409 0.214844 40.1538 1.53799 41.3861 4.37508C42.4459 1.53799 44.855 0.214844 47.4366 0.214844C49.2727 0.214844 51.2814 0.971809 52.5075 2.67037C53.8938 4.5597 53.6104 7.30447 53.6104 9.71076L53.6042 23.8839C53.6042 24.3331 53.2284 24.6962 52.7601 24.6962H48.3855C47.948 24.6654 47.5968 24.3146 47.5968 23.8839V11.9817C47.5968 11.0339 47.6831 8.6707 47.4736 7.77219C47.147 6.26441 46.1674 5.83977 44.8981 5.83977C43.8383 5.83977 42.7293 6.5475 42.2795 7.67988C41.8297 8.81225 41.8729 10.7077 41.8729 11.9817V23.8839C41.8729 24.3331 41.497 24.6962 41.0287 24.6962H36.6541C36.2105 24.6654 35.8655 24.3146 35.8655 23.8839L35.8593 11.9817C35.8593 9.4769 36.2721 5.79054 33.1606 5.79054C30.0121 5.79054 30.1353 9.38458 30.1353 11.9817V23.8839C30.1353 24.3331 29.7595 24.6962 29.2912 24.6962" fill="black"/>
<path fill-rule="evenodd" clip-rule="evenodd" d="M110.259 0.214844C116.759 0.214844 120.277 5.79054 120.277 12.8802C120.277 19.7298 116.389 25.1639 110.259 25.1639C103.875 25.1639 100.4 19.5882 100.4 12.6402C100.4 5.64899 103.919 0.214844 110.259 0.214844ZM110.296 4.79972C107.067 4.79972 106.864 9.1938 106.864 11.9324C106.864 14.6772 106.821 20.536 110.259 20.536C113.654 20.536 113.814 15.8096 113.814 12.9294C113.814 11.0339 113.734 8.76917 113.161 6.97214C112.668 5.40898 111.688 4.79972 110.296 4.79972Z" fill="black"/>
<path fill-rule="evenodd" clip-rule="evenodd" d="M128.706 24.6962H124.344C123.906 24.6654 123.555 24.3146 123.555 23.8839L123.549 1.42106C123.586 1.00873 123.949 0.688718 124.393 0.688718H128.453C128.835 0.707168 129.15 0.965656 129.236 1.31645V4.75048H129.316C130.542 1.67954 132.261 0.214844 135.286 0.214844C137.252 0.214844 139.168 0.922577 140.4 2.86114C141.546 4.65817 141.546 7.67988 141.546 9.8523V23.9885C141.497 24.3823 141.134 24.6962 140.702 24.6962H136.309C135.909 24.6654 135.576 24.37 135.533 23.9885V11.7909C135.533 9.33535 135.816 5.7413 132.791 5.7413C131.725 5.7413 130.745 6.45519 130.259 7.53833C129.642 8.91072 129.562 10.2769 129.562 11.7909V23.8839C129.556 24.3331 129.174 24.6962 128.706 24.6962" fill="black"/>
<path fill-rule="evenodd" clip-rule="evenodd" d="M70.3389 13.97C70.3389 15.6747 70.382 17.0963 69.5194 18.6103C68.8231 19.8411 67.7141 20.5981 66.488 20.5981C64.8059 20.5981 63.8201 19.318 63.8201 17.4287C63.8201 13.6992 67.1657 13.0223 70.3389 13.0223V13.97ZM74.7566 24.6352C74.467 24.8937 74.048 24.9122 73.7215 24.7399C72.2674 23.5336 72.0024 22.9736 71.2076 21.8228C68.8047 24.2721 67.0979 25.0045 63.9864 25.0045C60.2957 25.0045 57.4307 22.7336 57.4307 18.1856C57.4307 14.6347 59.353 12.2161 62.101 11.0345C64.4793 9.98825 67.8003 9.80363 70.3389 9.51438V8.9482C70.3389 7.90814 70.419 6.6773 69.8028 5.77879C69.2729 4.97259 68.2501 4.64026 67.3444 4.64026C65.6747 4.64026 64.1898 5.49569 63.8262 7.2681C63.7523 7.66197 63.4627 8.04969 63.0622 8.06815L58.817 7.61273C58.4596 7.53273 58.0591 7.24348 58.1639 6.69576C59.1374 1.55086 63.7954 0 67.9605 0C70.0924 0 72.8774 0.566187 74.5594 2.17858C76.6913 4.16639 76.488 6.81884 76.488 9.70516V16.524C76.488 18.5734 77.3382 19.4719 78.1392 20.5796C78.4165 20.9735 78.4781 21.4474 78.1207 21.7428C77.2273 22.4874 75.6377 23.8721 74.7627 24.6475L74.7566 24.6352" fill="black"/>
<path fill-rule="evenodd" clip-rule="evenodd" d="M12.9082 13.97C12.9082 15.6747 12.9513 17.0963 12.0887 18.6103C11.3925 19.8411 10.2896 20.5981 9.0573 20.5981C7.37523 20.5981 6.39556 19.318 6.39556 17.4287C6.39556 13.6992 9.74122 13.0223 12.9082 13.0223V13.97ZM17.3259 24.6352C17.0364 24.8937 16.6174 24.9122 16.2908 24.7399C14.8367 23.5336 14.5779 22.9736 13.777 21.8228C11.374 24.2721 9.67345 25.0045 6.55576 25.0045C2.87122 25.0045 0 22.7336 0 18.1856C0 14.6347 1.92853 12.2161 4.67036 11.0345C7.04867 9.98825 10.3697 9.80363 12.9082 9.51438V8.9482C12.9082 7.90814 12.9883 6.6773 12.3783 5.77879C11.8423 4.97259 10.8195 4.64026 9.9199 4.64026C8.25016 4.64026 6.75909 5.49569 6.39556 7.2681C6.32162 7.66197 6.03204 8.04969 5.63771 8.06815L1.38632 7.61273C1.02896 7.53273 0.634626 7.24348 0.733209 6.69576C1.71288 1.55086 6.36475 0 10.5299 0C12.6617 0 15.4467 0.566187 17.1288 2.17858C19.2606 4.16639 19.0573 6.81884 19.0573 9.70516V16.524C19.0573 18.5734 19.9076 19.4719 20.7086 20.5796C20.992 20.9735 21.0536 21.4474 20.6962 21.7428C19.8028 22.4874 18.2132 23.8721 17.3383 24.6475L17.3259 24.6352" fill="black"/>
</g>
<defs>
<clipPath id="clip0_2532_12851">
<rect width="141.547" height="42.6055" fill="white"/>
</clipPath>
</defs>
</svg>
