<svg width="151" height="50" viewBox="0 0 151 50" fill="none" xmlns="http://www.w3.org/2000/svg">
<g clip-path="url(#clip0_2532_12843)">
<path d="M145.796 30.1766L149.97 32.9596C148.616 34.9553 145.375 38.3792 139.772 38.3792C132.815 38.3792 127.633 32.9963 127.633 26.1486C127.633 18.8615 132.87 13.918 139.186 13.918C145.54 13.918 148.652 18.9713 149.659 21.6994L150.208 23.0909L133.84 29.8654C135.085 32.3188 137.026 33.5638 139.772 33.5638C142.519 33.5638 144.423 32.209 145.796 30.1766ZM132.961 25.7641L143.892 21.2234C143.288 19.7037 141.493 18.6235 139.351 18.6235C136.623 18.6235 132.833 21.0403 132.961 25.7641Z" fill="#FF302F"/>
<path d="M119.742 1.44922H125.015V37.2622H119.742V1.44922Z" fill="#20B15A"/>
<path d="M111.429 14.8688H116.519V36.6203C116.519 45.6468 111.191 49.3635 104.893 49.3635C98.9608 49.3635 95.3905 45.3721 94.0539 42.1314L98.7228 40.1906C99.565 42.1863 101.597 44.5482 104.893 44.5482C108.939 44.5482 111.429 42.0398 111.429 37.3526V35.595H111.246C110.038 37.0597 107.731 38.378 104.801 38.378C98.6861 38.378 93.0835 33.05 93.0835 26.184C93.0835 19.2814 98.6861 13.8984 104.801 13.8984C107.713 13.8984 110.038 15.1984 111.246 16.6265H111.429V14.8688ZM111.796 26.184C111.796 21.863 108.921 18.7138 105.259 18.7138C101.561 18.7138 98.4481 21.863 98.4481 26.184C98.4481 30.45 101.561 33.5443 105.259 33.5443C108.921 33.5626 111.796 30.45 111.796 26.184Z" fill="#3686F7"/>
<path d="M64.1365 26.0927C64.1365 33.1418 58.6437 38.3233 51.9059 38.3233C45.1681 38.3233 39.6753 33.1234 39.6753 26.0927C39.6753 19.007 45.1681 13.8438 51.9059 13.8438C58.6437 13.8438 64.1365 19.007 64.1365 26.0927ZM58.7902 26.0927C58.7902 21.6984 55.6044 18.6774 51.9059 18.6774C48.2074 18.6774 45.0216 21.6984 45.0216 26.0927C45.0216 30.4503 48.2074 33.5079 51.9059 33.5079C55.6044 33.5079 58.7902 30.4503 58.7902 26.0927Z" fill="#FF302F"/>
<path d="M90.8496 26.1486C90.8496 33.1977 85.3569 38.3792 78.619 38.3792C71.8812 38.3792 66.3884 33.1977 66.3884 26.1486C66.3884 19.0629 71.8812 13.918 78.619 13.918C85.3569 13.918 90.8496 19.0446 90.8496 26.1486ZM85.485 26.1486C85.485 21.7543 82.2992 18.7333 78.6007 18.7333C74.9023 18.7333 71.7164 21.7543 71.7164 26.1486C71.7164 30.5062 74.9023 33.5638 78.6007 33.5638C82.3175 33.5638 85.485 30.4879 85.485 26.1486Z" fill="#FFBA40"/>
<path d="M19.5717 33.0126C11.9001 33.0126 5.89463 26.8241 5.89463 19.1525C5.89463 11.4809 11.9001 5.29237 19.5717 5.29237C23.7096 5.29237 26.7306 6.9219 28.9643 9.00916L32.6445 5.32899C29.5319 2.34457 25.3757 0.0742188 19.5717 0.0742188C9.06214 0.0742188 0.21875 8.64297 0.21875 19.1525C0.21875 29.662 9.06214 38.2308 19.5717 38.2308C25.2476 38.2308 29.5319 36.3632 32.8825 32.8845C36.3247 29.4423 37.3866 24.6087 37.3866 20.6905C37.3866 19.4638 37.2401 18.2004 37.0754 17.2666H19.5717V22.3566H32.0403C31.6741 25.5424 30.6671 27.7213 29.1841 29.2043C27.3897 31.0169 24.5518 33.0126 19.5717 33.0126Z" fill="#3686F7"/>
</g>
<defs>
<clipPath id="clip0_2532_12843">
<rect width="150.483" height="49.3773" fill="white"/>
</clipPath>
</defs>
</svg>
