<svg width="167" height="28" viewBox="0 0 167 28" fill="none" xmlns="http://www.w3.org/2000/svg">
<g clip-path="url(#clip0_2532_12837)">
<path d="M77.1434 11.1648C74.6766 11.1648 72.9268 13.1107 72.9268 16.0979V27.0554H69.1612V7.76837H72.8817V10.1236C73.3406 9.34296 73.9983 8.70031 74.7865 8.26221C75.5746 7.82411 76.4647 7.60652 77.3644 7.63197H78.7173V11.1648H77.1434ZM66.5591 17.4119C66.5591 11.6603 62.5003 7.35917 57.0075 7.35917C55.7096 7.36805 54.4264 7.63557 53.2315 8.14632C52.0366 8.65708 50.9537 9.401 50.045 10.3353C49.1363 11.2696 48.4199 12.3758 47.9368 13.5903C47.4538 14.8047 47.2137 16.1035 47.2304 17.4119C47.2304 23.1589 51.6274 27.5056 57.3637 27.5056C58.9661 27.5361 60.5523 27.1778 61.9885 26.4609C63.4248 25.744 64.6691 24.6895 65.6165 23.3863L62.8836 21.3675C62.2567 22.2498 61.427 22.9658 60.4658 23.4543C59.5045 23.9429 58.4401 24.1894 57.3637 24.1728C55.8307 24.1656 54.351 23.6048 53.1927 22.5922C52.0345 21.5796 51.2743 20.1822 51.0501 18.6532H66.5681L66.5591 17.4119ZM51.1313 15.6432C51.8032 12.7015 54.1348 10.7101 56.9624 10.7101C59.79 10.7101 62.117 12.7015 62.7483 15.6432H51.1313ZM35.3021 7.35917C34.0437 7.36023 32.7979 7.61272 31.6369 8.10203C30.4758 8.59134 29.4224 9.30778 28.5375 10.2099V0.566406H24.7719V27.0554H28.4924V24.6093C30.2948 26.4476 32.7474 27.4893 35.3112 27.5056C36.6411 27.5341 37.9633 27.2946 39.2002 26.8011C40.4372 26.3077 41.5639 25.5703 42.5145 24.6321C43.465 23.6939 44.2203 22.5738 44.7358 21.3375C45.2514 20.1012 45.517 18.7735 45.517 17.4324C45.517 16.0912 45.2514 14.7636 44.7358 13.5273C44.2203 12.291 43.465 11.1709 42.5145 10.2327C41.5639 9.29446 40.4372 8.55702 39.2002 8.0636C37.9633 7.57017 36.6411 7.33068 35.3112 7.35917H35.3021ZM35.0315 24.1137C33.719 24.12 32.4342 23.7331 31.3401 23.002C30.246 22.2709 29.392 21.2287 28.8864 20.0075C28.3808 18.7863 28.2465 17.4412 28.5003 16.1428C28.7542 14.8445 29.3849 13.6515 30.3124 12.7151C31.2399 11.7787 32.4223 11.1413 33.7098 10.8835C34.9972 10.6258 36.3315 10.7594 37.5435 11.2675C38.7555 11.7756 39.7904 12.6352 40.5171 13.7372C41.2437 14.8392 41.6292 16.1341 41.6248 17.4574C41.626 18.3302 41.4562 19.1947 41.1251 20.0012C40.7941 20.8077 40.3084 21.5404 39.6958 22.1572C39.0832 22.7739 38.3558 23.2627 37.5554 23.5953C36.755 23.9279 35.8973 24.0979 35.0315 24.0956V24.1137ZM10.9045 23.9319C14.5393 23.9319 17.3624 21.122 17.3624 16.9118V0.566406H21.2633V27.0554H17.4075V24.5502C16.5067 25.4889 15.4263 26.2336 14.2318 26.7392C13.0373 27.2448 11.7535 27.5009 10.458 27.4919C4.85243 27.4919 0.536621 23.3726 0.536621 17.1255V0.566406H4.50969V16.9345C4.50969 21.1675 7.21553 23.9319 10.9045 23.9319Z" fill="#262626"/>
<path d="M88.084 0.566406H106.515V5.1131H93.0627V11.5694H106.141V15.9615H93.0627V22.5269H106.515V27.0736H88.084V0.566406ZM157.417 27.551C163.067 27.551 166.251 24.823 166.251 21.0765C166.251 18.4076 164.366 16.4162 160.42 15.5523L156.249 14.693C153.827 14.2383 153.065 13.7836 153.065 12.8743C153.065 11.6967 154.233 10.9738 156.384 10.9738C158.715 10.9738 160.443 11.6058 160.894 13.7791H165.782C165.516 9.68707 162.598 6.98634 156.681 6.98634C151.567 6.98634 147.978 9.11419 147.978 13.238C147.978 16.0888 149.953 17.9439 154.215 18.8487L158.878 19.9353C160.718 20.2991 161.209 20.7992 161.209 21.5676C161.209 22.7907 159.82 23.559 157.574 23.559C154.751 23.559 153.137 22.9271 152.51 20.7537H147.594C148.311 24.8367 151.315 27.551 157.417 27.551ZM146.174 27.0555H140.884C137.565 27.0555 135.725 24.9731 135.725 22.3451V11.9331H132.004V7.49557H135.743V1.92587H140.658V7.49557H146.174V11.9331H140.658V21.0765C140.658 22.1177 141.375 22.6179 142.498 22.6179H146.174V27.0555ZM124.978 7.50466V9.26878C123.247 7.79377 121.052 6.98791 118.786 6.99543C117.429 6.96666 116.081 7.21123 114.819 7.71482C113.557 8.2184 112.408 8.97086 111.438 9.92809C110.468 10.8853 109.698 12.0281 109.172 13.2893C108.646 14.5506 108.375 15.905 108.375 17.2732C108.375 18.6414 108.646 19.9959 109.172 21.2571C109.698 22.5184 110.468 23.6612 111.438 24.6184C112.408 25.5756 113.557 26.3281 114.819 26.8317C116.081 27.3352 117.429 27.5798 118.786 27.551C121.053 27.561 123.249 26.7548 124.978 25.2777V27.0464H129.88V7.49557L124.978 7.50466ZM119.192 23.259C118.016 23.2725 116.863 22.9332 115.879 22.2843C114.895 21.6354 114.124 20.7062 113.665 19.6147C113.206 18.5232 113.079 17.3187 113.3 16.1543C113.522 14.9899 114.082 13.9182 114.909 13.0754C115.736 12.2326 116.793 11.6567 117.945 11.4209C119.098 11.1852 120.294 11.3002 121.381 11.7513C122.469 12.2025 123.398 12.9694 124.053 13.9547C124.707 14.9399 125.056 16.099 125.055 17.2846C125.062 18.0662 124.915 18.8414 124.623 19.5654C124.331 20.2894 123.9 20.9479 123.354 21.5026C122.808 22.0574 122.158 22.4975 121.442 22.7974C120.726 23.0973 119.958 23.2511 119.183 23.2499L119.192 23.259Z" fill="#5FB709"/>
</g>
<defs>
<clipPath id="clip0_2532_12837">
<rect width="166.409" height="27.7348" fill="white"/>
</clipPath>
</defs>
</svg>
